<svg width="200" height="200" viewBox="0 0 200 200" fill="none" xmlns="http://www.w3.org/2000/svg">
<g clip-path="url(#clip0_2_2)">
<path fill-rule="evenodd" clip-rule="evenodd" d="M100 200C155.228 200 200 155.228 200 100C200 44.7715 155.228 0 100 0C44.7715 0 0 44.7715 0 100C0 155.228 44.7715 200 100 200ZM145.15 65.2221C151.575 61.1927 157.745 59.5788 165.642 59.006C164.952 59.455 164.258 59.8923 163.566 60.3281C160.124 62.4961 156.743 64.6255 154.337 67.9579C159.978 73.8912 165.446 79.0487 172.41 83.9663L168.723 89.3502C162.951 90.4727 155.29 90.5066 146.561 89.5667C142.814 96.5572 137.632 102.509 130.488 107.021L117.587 116.236C112.375 122.081 110.046 132.585 113.598 139.994H105.285C106.049 130.598 105.043 121.143 103.963 111.747C95.5712 113.358 85.036 113.162 77.8987 111.794C76.8249 111.61 75.7652 111.39 74.7451 111.122C72.4879 110.603 70.1436 109.989 67.63 109.285C66.681 110.622 65.8166 111.967 64.9522 113.312C62.444 117.216 59.9359 121.119 55.3612 124.824C53.0707 126.24 55.3113 135.438 56.5269 139.994H47.9449C48.0385 134.619 47.8226 128.494 47.5895 122.07C50.491 120.556 60.6696 114.862 59.7158 109.895C59.4796 108.665 57.8673 108.495 56.236 108.323C54.6317 108.155 53.0089 107.984 52.6581 106.8C52.1035 104.929 54.2345 103.35 56.306 101.816C58.4423 100.233 60.5154 98.6976 59.5137 96.9361C57.7244 93.7895 49.2251 96.3391 47.2455 96.984C47.4723 91.3738 48.0494 86.4451 49.2553 82.8471C48.9651 82.8829 48.633 82.782 48.283 82.6757C46.878 82.2489 45.1844 81.7345 44.758 89.6184C44.4626 92.4949 44.5595 95.7005 44.6571 98.9298C44.8386 104.934 45.0225 111.019 42.6922 115.223C40.3609 119.428 33.9256 119.604 37.8074 113.691C38.2461 113.023 38.773 112.651 39.2807 112.293C40.2412 111.615 41.1327 110.985 41.2274 108.49C41.3097 106.327 40.8839 103.157 40.4432 99.8758C39.9147 95.9412 39.3647 91.8464 39.6434 89.1348C40.1034 84.6551 40.9578 80.4691 43.4488 77.3137C45.3167 74.947 48.2848 73.4932 51.8921 73.3924C54.76 73.3437 57.6638 73.3478 60.5961 73.3828C61.4126 76.3047 64.2048 85.1868 68.5881 87.2652C71.2672 88.5357 74.2863 87.2977 77.3346 86.0478C80.1921 84.8761 83.0753 83.6939 85.7282 84.5576C87.6945 85.1977 88.8399 87.2683 89.9594 89.292C91.2244 91.5787 92.4563 93.8056 94.802 93.8418C101.17 93.9404 108.868 86.9684 108.312 80.8828C108.191 79.5499 106.745 79.0248 105.243 78.4789C104.094 78.0617 102.912 77.6323 102.263 76.8208C101.731 76.156 101.262 75.1084 100.881 74.0531C107.95 73.9165 115.068 73.5042 122.181 72.5841L139.145 69.8534C136.28 66.2011 137.162 62.4903 140.556 60.8159C141.069 60.5628 141.896 61.6389 142.788 62.7994C143.582 63.8336 144.428 64.9348 145.15 65.2221ZM165.642 59.006H165.642C165.642 59.006 165.642 59.006 165.642 59.006ZM155.961 74.6799C155.531 74.2667 154.946 74.0346 154.337 74.0346C153.728 74.0346 153.144 74.2667 152.713 74.6799C152.282 75.0931 152.04 75.6535 152.04 76.2378C152.04 76.8221 152.282 77.3824 152.713 77.7956C153.144 78.2088 153.728 78.4409 154.337 78.4409C154.946 78.4409 155.531 78.2088 155.961 77.7956C156.392 77.3824 156.634 76.8221 156.634 76.2378C156.634 75.6535 156.392 75.0931 155.961 74.6799ZM132.917 82.4288C134.951 81.6381 136.867 80.8928 136.139 79.5289C135.318 78.0823 134.16 77.1353 130.838 77.1609C127.516 77.1865 120.596 80.0839 118.798 83.3974C118.023 84.8252 119.318 86.3305 120.622 87.846C121.907 89.3403 123.202 90.8447 122.528 92.2944C121.708 94.06 119.09 94.1395 116.543 94.2169C113.89 94.2975 111.315 94.3757 110.934 96.3559C110.189 100.22 116.115 104.242 120.21 104.092C127.571 103.824 136.833 95.994 135.737 89.0065C135.547 87.7977 133.938 87.5344 132.337 87.2723C130.727 87.0088 129.125 86.7464 128.981 85.5248C128.805 84.0279 130.918 83.2063 132.917 82.4288ZM118.542 120.922L128.507 114.323C125.805 124.708 126.895 133.81 130.278 139.994H120.398L118.542 120.922ZM63.4089 123.316C65.7135 120.762 68.0391 118.067 69.7753 114.712C74.3928 116.672 79.6599 117.248 83.856 117.488C81.9628 119.943 79.8195 122.343 76.9323 123.923C74.5459 125.229 71.5548 125.81 68.334 125.137C66.7531 124.806 65.1229 124.206 63.4089 123.316ZM69.398 129.847C71.7276 130.051 74.2298 129.744 76.7382 129.032C77.4319 131.929 79.0842 134.905 82.0681 139.994H73.9412C73.3044 138.551 72.6721 137.163 72.0447 135.786C71.1519 133.826 70.2692 131.889 69.398 129.847Z" fill="white"/>
</g>
<defs>
<clipPath id="clip0_2_2">
<rect width="200" height="200" fill="white"/>
</clipPath>
</defs>
</svg>
